<svg width="18" height="18" viewBox="0 0 18 18" fill="none" xmlns="http://www.w3.org/2000/svg">
<path fill-rule="evenodd" clip-rule="evenodd" d="M4.75006 0L12.7501 0C15.3734 0 17.5001 2.12665 17.5001 4.75V12.75C17.5001 15.3734 15.3734 17.5 12.7501 17.5H4.75006C2.12671 17.5 6.10352e-05 15.3734 6.10352e-05 12.75L6.10352e-05 4.75C6.10352e-05 2.12665 2.12671 0 4.75006 0ZM12.7501 1.5H4.75006C2.95514 1.5 1.50006 2.95507 1.50006 4.75V12.75C1.50006 14.5449 2.95514 16 4.75006 16H12.7501C14.545 16 16.0001 14.5449 16.0001 12.75V4.75C16.0001 2.95507 14.545 1.5 12.7501 1.5ZM5.00006 8.75C5.00006 6.67893 6.67899 5 8.75006 5C10.8211 5 12.5001 6.67893 12.5001 8.75C12.5001 10.8211 10.8211 12.5 8.75006 12.5C6.67899 12.5 5.00006 10.8211 5.00006 8.75ZM11.0001 8.75C11.0001 7.50736 9.9927 6.5 8.75006 6.5C7.50742 6.5 6.50006 7.50736 6.50006 8.75C6.50006 9.99264 7.50742 11 8.75006 11C9.9927 11 11.0001 9.99264 11.0001 8.75ZM13.9932 4.14823C13.9436 3.78215 13.6298 3.5 13.2501 3.5C12.8358 3.5 12.5001 3.83579 12.5001 4.251L12.5069 4.35277C12.5566 4.71885 12.8704 5.001 13.2501 5.001C13.6643 5.001 14.0001 4.66521 14.0001 4.25L13.9932 4.14823Z" fill="#212121"/>
</svg>
